:version	1.10
:name	0101
:units
	mass	kg
	length	m
	angle	deg
:documentation
	fps:30
:root
	axis	XYZ
	order	TX	TY	TZ	RX	RY	RZ
	position	0.00	0.00	0.00
	orientation	0.00	0.00	0.00
:bonedata
	begin
		id	1
		name	Head
		direction	-18.5	116.2	-38.8
		length	123.9
		axis	0.0	0.0	0.0	XYZ
		dof	rx	ry	rz
		limits	(-inf	inf)
			(-inf	inf)
			(-inf	inf)
	end
	begin
		id	2
		name	Neck
		direction	-1.6	89.5	-15.3
		length	90.8
		axis	0.0	0.0	0.0	XYZ
		dof	rx	ry	rz
		limits	(-inf	inf)
			(-inf	inf)
			(-inf	inf)
	end
	begin
		id	3
		name	LeftCollar
		direction	-5.0	276.0	-47.2
		length	280.1
		axis	0.0	0.0	0.0	XYZ
		dof	rx	ry	rz
		limits	(-inf	inf)
			(-inf	inf)
			(-inf	inf)
	end
	begin
		id	4
		name	Torso
		direction	4.0	199.4	8.5
		length	199.7
		axis	0.0	0.0	0.0	XYZ
		dof	rx	ry	rz
		limits	(-inf	inf)
			(-inf	inf)
			(-inf	inf)
	end
	begin
		id	5
		name	LeftShoulder
		direction	170.7	-14.1	-44.7
		length	177.0
		axis	0.0	0.0	0.0	XYZ
		dof	rx	ry	rz
		limits	(-inf	inf)
			(-inf	inf)
			(-inf	inf)
	end
	begin
		id	6
		name	RightShoulder
		direction	-174.2	6.3	52.4
		length	182.0
		axis	0.0	0.0	0.0	XYZ
		dof	rx	ry	rz
		limits	(-inf	inf)
			(-inf	inf)
			(-inf	inf)
	end
	begin
		id	7
		name	LeftElbow
		direction	55.3	-271.7	26.6
		length	278.5
		axis	0.0	0.0	0.0	XYZ
		dof	rx	ry	rz
		limits	(-inf	inf)
			(-inf	inf)
			(-inf	inf)
	end
	begin
		id	8
		name	RightElbow
		direction	-37.0	-268.0	66.2
		length	278.5
		axis	0.0	0.0	0.0	XYZ
		dof	rx	ry	rz
		limits	(-inf	inf)
			(-inf	inf)
			(-inf	inf)
	end
	begin
		id	9
		name	LeftWrist
		direction	69.1	-260.5	-128.7
		length	298.7
		axis	0.0	0.0	0.0	XYZ
		dof	rx	ry	rz
		limits	(-inf	inf)
			(-inf	inf)
			(-inf	inf)
	end
	begin
		id	10
		name	RightWrist
		direction	-79.9	-277.4	-76.9
		length	298.7
		axis	0.0	0.0	0.0	XYZ
		dof	rx	ry	rz
		limits	(-inf	inf)
			(-inf	inf)
			(-inf	inf)
	end
	begin
		id	11
		name	LeftHand
		direction	13.8	-52.1	-25.7
		length	59.7
		axis	0.0	0.0	0.0	XYZ
		dof	rx	ry	rz
		limits	(-inf	inf)
			(-inf	inf)
			(-inf	inf)
	end
	begin
		id	12
		name	RightHand
		direction	-16.0	-55.5	-15.4
		length	59.7
		axis	0.0	0.0	0.0	XYZ
		dof	rx	ry	rz
		limits	(-inf	inf)
			(-inf	inf)
			(-inf	inf)
	end
	begin
		id	13
		name	LeftHip
		direction	117.3	-70.1	12.8
		length	137.3
		axis	0.0	0.0	0.0	XYZ
		dof	rx	ry	rz
		limits	(-inf	inf)
			(-inf	inf)
			(-inf	inf)
	end
	begin
		id	14
		name	RightHip
		direction	-108.5	-76.7	41.0
		length	139.0
		axis	0.0	0.0	0.0	XYZ
		dof	rx	ry	rz
		limits	(-inf	inf)
			(-inf	inf)
			(-inf	inf)
	end
	begin
		id	15
		name	LeftKnee
		direction	-0.2	-428.3	-95.5
		length	438.9
		axis	0.0	0.0	0.0	XYZ
		dof	rx	ry	rz
		limits	(-inf	inf)
			(-inf	inf)
			(-inf	inf)
	end
	begin
		id	16
		name	RightKnee
		direction	16.9	-434.8	-56.9
		length	438.9
		axis	0.0	0.0	0.0	XYZ
		dof	rx	ry	rz
		limits	(-inf	inf)
			(-inf	inf)
			(-inf	inf)
	end
	begin
		id	17
		name	LeftAnkle
		direction	51.1	-389.3	75.6
		length	399.8
		axis	0.0	0.0	0.0	XYZ
		dof	rx	ry	rz
		limits	(-inf	inf)
			(-inf	inf)
			(-inf	inf)
	end
	begin
		id	18
		name	RightAnkle
		direction	-36.9	-388.8	85.6
		length	399.8
		axis	0.0	0.0	0.0	XYZ
		dof	rx	ry	rz
		limits	(-inf	inf)
			(-inf	inf)
			(-inf	inf)
	end
:hierarchy
	begin
		Neck	Head
		LeftCollar	Neck	LeftShoulder	RightShoulder
		Torso	LeftCollar
		root	Torso	LeftHip	RightHip
		LeftShoulder	LeftElbow
		RightShoulder	RightElbow
		LeftElbow	LeftWrist
		RightElbow	RightWrist
		LeftWrist	LeftHand
		RightWrist	RightHand
		LeftHip	LeftKnee
		RightHip	RightKnee
		LeftKnee	LeftAnkle
		RightKnee	RightAnkle
	end

:FULLY-SPECIFIED
:DEGREES
162
Head	-31.36	8.52	-7.32
Neck	-31.36	8.52	-7.32
LeftCollar	-31.36	8.52	-7.32
Torso	-31.36	8.52	-7.32
root	114.23	-449.14	2983.82	0.36	-0.94	-1.22
LeftShoulder	-19.96	-4.79	-48.88
RightShoulder	-17.76	27.10	67.90
LeftElbow	-78.26	69.67	-128.12
RightElbow	-26.36	-52.29	97.60
LeftWrist	-75.90	69.46	-125.60
RightWrist	-30.14	-57.26	102.23
LeftHand	-75.90	69.46	-125.60
RightHand	-30.14	-57.26	102.23
LeftHip	82.64	-12.01	2.59
RightHip	52.31	3.53	8.75
LeftKnee	-28.31	-12.01	2.59
RightKnee	-43.67	3.53	8.75
LeftAnkle	-28.31	-12.01	2.59
RightAnkle	-43.67	3.53	8.75
163
Head	-30.02	10.00	-8.10
Neck	-30.02	10.00	-8.10
LeftCollar	-30.02	10.00	-8.10
Torso	-30.02	10.00	-8.10
root	114.20	-443.37	3002.31	1.47	3.60	-0.52
LeftShoulder	-19.31	-5.94	-49.74
RightShoulder	-16.39	26.75	67.77
LeftElbow	-73.65	69.95	-124.47
RightElbow	-23.61	-51.02	94.07
LeftWrist	-70.42	69.56	-121.02
RightWrist	-26.57	-55.71	97.76
LeftHand	-70.42	69.56	-121.02
RightHand	-26.57	-55.71	97.76
LeftHip	82.07	-10.88	2.68
RightHip	57.33	3.12	7.80
LeftKnee	-28.24	-10.88	2.68
RightKnee	-38.44	3.12	7.80
LeftAnkle	-28.24	-10.88	2.68
RightAnkle	-38.44	3.12	7.80
164
Head	-30.14	11.24	-8.62
Neck	-30.14	11.24	-8.62
LeftCollar	-30.14	11.24	-8.62
Torso	-30.14	11.24	-8.62
root	114.20	-429.91	3025.28	1.64	4.69	-0.69
LeftShoulder	-18.96	-5.46	-51.56
RightShoulder	-17.39	27.07	67.51
LeftElbow	-65.26	69.14	-117.19
RightElbow	-24.47	-50.01	94.84
LeftWrist	-60.98	68.29	-112.59
RightWrist	-27.22	-54.42	98.33
LeftHand	-60.98	68.29	-112.59
RightHand	-27.22	-54.42	98.33
LeftHip	81.19	-9.83	2.66
RightHip	58.78	2.87	7.07
LeftKnee	-24.66	-9.83	2.66
RightKnee	-32.61	2.87	7.07
LeftAnkle	-24.66	-9.83	2.66
RightAnkle	-32.61	2.87	7.07
165
Head	-30.21	11.76	-8.57
Neck	-30.21	11.76	-8.57
LeftCollar	-30.21	11.76	-8.57
Torso	-30.21	11.76	-8.57
root	114.92	-413.01	3038.47	3.12	4.12	-1.09
LeftShoulder	-14.17	-7.35	-55.96
RightShoulder	-17.81	27.34	66.90
LeftElbow	-48.16	70.98	-104.37
RightElbow	-24.07	-48.23	93.72
LeftWrist	-43.83	69.47	-99.77
RightWrist	-26.38	-52.30	96.72
LeftHand	-43.83	69.47	-99.77
RightHand	-26.38	-52.30	96.72
LeftHip	79.46	-9.23	3.26
RightHip	57.82	3.11	6.40
LeftKnee	-21.68	-9.23	3.26
RightKnee	-28.55	3.11	6.40
LeftAnkle	-21.68	-9.23	3.26
RightAnkle	-28.55	3.11	6.40
166
Head	-30.21	11.76	-8.57
Neck	-30.21	11.76	-8.57
LeftCollar	-30.21	11.76	-8.57
Torso	-30.21	11.76	-8.57
root	114.92	-413.01	3038.47	3.12	4.12	-1.09
LeftShoulder	-14.17	-7.35	-55.96
RightShoulder	-17.81	27.34	66.90
LeftElbow	-48.16	70.98	-104.37
RightElbow	-24.07	-48.23	93.72
LeftWrist	-43.83	69.47	-99.77
RightWrist	-26.38	-52.30	96.72
LeftHand	-43.83	69.47	-99.77
RightHand	-26.38	-52.30	96.72
LeftHip	79.46	-9.23	3.26
RightHip	57.82	3.11	6.40
LeftKnee	-21.68	-9.23	3.26
RightKnee	-28.55	3.11	6.40
LeftAnkle	-21.68	-9.23	3.26
RightAnkle	-28.55	3.11	6.40
167
Head	-28.60	12.11	-8.23
Neck	-28.60	12.11	-8.23
LeftCollar	-28.60	12.11	-8.23
Torso	-28.60	12.11	-8.23
root	115.08	-402.37	3046.36	5.50	3.36	-1.26
LeftShoulder	-13.00	-5.82	-57.88
RightShoulder	-18.63	25.73	66.34
LeftElbow	-40.48	69.83	-97.92
RightElbow	-24.24	-45.51	92.48
LeftWrist	-36.33	67.80	-93.47
RightWrist	-26.03	-49.02	94.91
LeftHand	-36.33	67.80	-93.47
RightHand	-26.03	-49.02	94.91
LeftHip	78.18	-9.19	3.41
RightHip	57.38	3.40	5.59
LeftKnee	-20.48	-9.19	3.41
RightKnee	-27.28	3.40	5.59
LeftAnkle	-20.48	-9.19	3.41
RightAnkle	-27.28	3.40	5.59
168
Head	-21.38	14.57	-6.68
Neck	-21.38	14.57	-6.68
LeftCollar	-21.38	14.57	-6.68
Torso	-21.38	14.57	-6.68
root	114.09	-399.86	3059.19	7.52	3.78	-0.80
LeftShoulder	-11.45	-0.51	-59.31
RightShoulder	-17.14	19.55	67.35
LeftElbow	-33.38	68.86	-90.99
RightElbow	-25.00	-48.89	92.60
LeftWrist	-29.20	65.99	-86.46
RightWrist	-26.81	-51.97	94.95
LeftHand	-29.20	65.99	-86.46
RightHand	-26.81	-51.97	94.95
LeftHip	77.87	-8.74	3.05
RightHip	59.75	4.17	5.78
LeftKnee	-17.50	-8.74	3.05
RightKnee	-23.50	4.17	5.78
LeftAnkle	-17.50	-8.74	3.05
RightAnkle	-23.50	4.17	5.78
169
Head	-18.56	16.00	-6.01
Neck	-18.56	16.00	-6.01
LeftCollar	-18.56	16.00	-6.01
Torso	-18.56	16.00	-6.01
root	112.35	-399.98	3071.27	8.35	4.08	-0.69
LeftShoulder	-10.73	1.86	-59.56
RightShoulder	-16.19	17.10	68.06
LeftElbow	-30.69	68.62	-88.14
RightElbow	-25.84	-52.31	93.91
LeftWrist	-26.64	65.48	-83.74
RightWrist	-27.96	-55.37	96.54
LeftHand	-26.64	65.48	-83.74
RightHand	-27.96	-55.37	96.54
LeftHip	78.01	-8.82	2.83
RightHip	60.52	4.25	5.95
LeftKnee	-15.71	-8.82	2.83
RightKnee	-21.10	4.25	5.95
LeftAnkle	-15.71	-8.82	2.83
RightAnkle	-21.10	4.25	5.95
170
Head	-16.68	16.50	-5.33
Neck	-16.68	16.50	-5.33
LeftCollar	-16.68	16.50	-5.33
Torso	-16.68	16.50	-5.33
root	108.89	-400.33	3084.33	10.13	4.37	-0.31
LeftShoulder	-8.80	4.47	-59.30
RightShoulder	-16.12	14.93	68.31
LeftElbow	-27.89	70.98	-85.19
RightElbow	-27.92	-55.04	96.05
LeftWrist	-23.87	67.86	-80.90
RightWrist	-30.38	-57.96	98.99
LeftHand	-23.87	67.86	-80.90
RightHand	-30.38	-57.96	98.99
LeftHip	78.01	-9.17	2.75
RightHip	61.58	3.90	6.12
LeftKnee	-14.63	-9.17	2.75
RightKnee	-19.88	3.90	6.12
LeftAnkle	-14.63	-9.17	2.75
RightAnkle	-19.88	3.90	6.12
171
Head	-15.44	16.19	-5.17
Neck	-15.44	16.19	-5.17
LeftCollar	-15.44	16.19	-5.17
Torso	-15.44	16.19	-5.17
root	105.48	-400.11	3094.37	11.36	3.71	-0.05
LeftShoulder	-6.97	6.64	-59.43
RightShoulder	-16.04	13.07	68.35
LeftElbow	-24.23	72.92	-81.90
RightElbow	-29.67	-57.07	97.62
LeftWrist	-20.53	69.90	-78.00
RightWrist	-32.31	-59.77	100.72
LeftHand	-20.53	69.90	-78.00
RightHand	-32.31	-59.77	100.72
LeftHip	78.07	-9.33	2.65
RightHip	62.89	3.42	6.22
LeftKnee	-13.20	-9.33	2.65
RightKnee	-18.85	3.42	6.22
LeftAnkle	-13.20	-9.33	2.65
RightAnkle	-18.85	3.42	6.22
172
Head	-15.44	16.19	-5.17
Neck	-15.44	16.19	-5.17
LeftCollar	-15.44	16.19	-5.17
Torso	-15.44	16.19	-5.17
root	105.48	-400.11	3094.37	11.36	3.71	-0.05
LeftShoulder	-6.97	6.64	-59.43
RightShoulder	-16.04	13.07	68.35
LeftElbow	-24.23	72.92	-81.90
RightElbow	-29.67	-57.07	97.62
LeftWrist	-20.53	69.90	-78.00
RightWrist	-32.31	-59.77	100.72
LeftHand	-20.53	69.90	-78.00
RightHand	-32.31	-59.77	100.72
LeftHip	78.07	-9.33	2.65
RightHip	62.89	3.42	6.22
LeftKnee	-13.20	-9.33	2.65
RightKnee	-18.85	3.42	6.22
LeftAnkle	-13.20	-9.33	2.65
RightAnkle	-18.85	3.42	6.22
173
Head	-14.02	16.68	-5.25
Neck	-14.02	16.68	-5.25
LeftCollar	-14.02	16.68	-5.25
Torso	-14.02	16.68	-5.25
root	102.51	-400.02	3101.62	11.92	2.81	0.02
LeftShoulder	-4.53	9.22	-60.05
RightShoulder	-15.17	11.53	68.36
LeftElbow	-17.77	75.20	-76.54
RightElbow	-30.41	-59.58	98.30
LeftWrist	-14.76	72.19	-73.41
RightWrist	-33.33	-62.19	101.64
LeftHand	-14.76	72.19	-73.41
RightHand	-33.33	-62.19	101.64
LeftHip	78.25	-9.00	2.39
RightHip	64.24	2.53	6.25
LeftKnee	-11.71	-9.00	2.39
RightKnee	-17.69	2.53	6.25
LeftAnkle	-11.71	-9.00	2.39
RightAnkle	-17.69	2.53	6.25
174
Head	-13.10	15.90	-5.17
Neck	-13.10	15.90	-5.17
LeftCollar	-13.10	15.90	-5.17
Torso	-13.10	15.90	-5.17
root	96.36	-398.83	3129.32	11.72	6.43	0.89
LeftShoulder	-3.41	11.67	-60.80
RightShoulder	-14.66	9.79	68.50
LeftElbow	-17.42	78.78	-77.21
RightElbow	-31.86	-61.81	99.76
LeftWrist	-14.15	76.22	-73.87
RightWrist	-34.92	-64.17	103.19
LeftHand	-14.15	76.22	-73.87
RightHand	-34.92	-64.17	103.19
LeftHip	78.41	-8.72	2.82
RightHip	72.65	0.44	6.06
LeftKnee	-8.52	-8.72	2.82
RightKnee	-12.47	0.44	6.06
LeftAnkle	-8.52	-8.72	2.82
RightAnkle	-12.47	0.44	6.06
175
Head	-11.86	15.99	-4.79
Neck	-11.86	15.99	-4.79
LeftCollar	-11.86	15.99	-4.79
Torso	-11.86	15.99	-4.79
root	94.50	-399.76	3137.96	12.86	6.96	0.86
LeftShoulder	-3.30	12.60	-61.47
RightShoulder	-14.19	8.31	68.66
LeftElbow	-17.79	79.39	-78.25
RightElbow	-32.40	-63.09	100.26
LeftWrist	-14.37	76.90	-74.76
RightWrist	-35.48	-65.30	103.68
LeftHand	-14.37	76.90	-74.76
RightHand	-35.48	-65.30	103.68
LeftHip	78.50	-8.81	2.78
RightHip	68.01	0.62	6.68
LeftKnee	-8.04	-8.81	2.78
RightKnee	-10.65	0.62	6.68
LeftAnkle	-8.04	-8.81	2.78
RightAnkle	-10.65	0.62	6.68
176
Head	-10.58	17.36	-4.58
Neck	-10.58	17.36	-4.58
LeftCollar	-10.58	17.36	-4.58
Torso	-10.58	17.36	-4.58
root	93.34	-401.20	3141.56	15.06	6.01	0.51
LeftShoulder	-2.71	12.35	-62.15
RightShoulder	-12.10	8.32	69.45
LeftElbow	-14.41	79.29	-75.74
RightElbow	-29.48	-65.06	98.36
LeftWrist	-11.72	76.85	-73.00
RightWrist	-32.61	-67.35	101.78
LeftHand	-11.72	76.85	-73.00
RightHand	-32.61	-67.35	101.78
LeftHip	78.60	-9.14	2.63
RightHip	68.41	0.06	6.42
LeftKnee	-8.19	-9.14	2.63
RightKnee	-11.83	0.06	6.42
LeftAnkle	-8.19	-9.14	2.63
RightAnkle	-11.83	0.06	6.42
177
Head	-8.90	18.17	-4.22
Neck	-8.90	18.17	-4.22
LeftCollar	-8.90	18.17	-4.22
Torso	-8.90	18.17	-4.22
root	92.77	-402.82	3142.71	16.90	4.56	0.23
LeftShoulder	-2.65	12.53	-62.55
RightShoulder	-11.10	7.69	69.68
LeftElbow	-14.43	79.58	-76.18
RightElbow	-27.71	-65.77	96.77
LeftWrist	-11.75	77.22	-73.44
RightWrist	-30.60	-67.98	99.92
LeftHand	-11.75	77.22	-73.44
RightHand	-30.60	-67.98	99.92
LeftHip	78.83	-9.09	2.61
RightHip	68.62	-0.20	6.22
LeftKnee	-8.33	-9.09	2.61
RightKnee	-13.27	-0.20	6.22
LeftAnkle	-8.33	-9.09	2.61
RightAnkle	-13.27	-0.20	6.22
178
Head	-8.90	18.17	-4.22
Neck	-8.90	18.17	-4.22
LeftCollar	-8.90	18.17	-4.22
Torso	-8.90	18.17	-4.22
root	92.77	-402.82	3142.71	16.90	4.56	0.23
LeftShoulder	-2.65	12.53	-62.55
RightShoulder	-11.10	7.69	69.68
LeftElbow	-14.43	79.58	-76.18
RightElbow	-27.71	-65.77	96.77
LeftWrist	-11.75	77.22	-73.44
RightWrist	-30.60	-67.98	99.92
LeftHand	-11.75	77.22	-73.44
RightHand	-30.60	-67.98	99.92
LeftHip	78.83	-9.09	2.61
RightHip	68.62	-0.20	6.22
LeftKnee	-8.33	-9.09	2.61
RightKnee	-13.27	-0.20	6.22
LeftAnkle	-8.33	-9.09	2.61
RightAnkle	-13.27	-0.20	6.22
